<svg width="64" height="64" viewBox="0 0 64 64" xmlns="http://www.w3.org/2000/svg">
  <defs>
    <linearGradient id="shieldGradient" x1="0" y1="0" x2="1" y2="1">
      <stop offset="0%" stop-color="#5b4bff"/>
      <stop offset="100%" stop-color="#4338ca"/>
    </linearGradient>
  </defs>
  <!-- Bigger shield, no dark background -->
  <path d="M32 4L10 10.5V29C10 42.5 19.1 54 32 60C44.9 54 54 42.5 54 29V10.5L32 4Z"
        fill="url(#shieldGradient)"/>
  <rect x="23" y="25" width="18" height="14" rx="4" fill="white" fill-opacity="0.98"/>
  <path d="M32 19.5C29.1 19.5 27 21.6 27 24.5V26.8H29.8V24.6C29.8 22.9 30.8 21.9 32.5 21.9C34.2 21.9 35.2 22.9 35.2 24.6V26.8H38V24.5C38 21.6 34.9 19.5 32 19.5Z"
        fill="#e5e7ff"/>
  <circle cx="32" cy="30.5" r="2.3" fill="#5b4bff"/>
</svg>
